# xmcd CD database file
#
# Track frame offsets:
#	150
#	41464
#	53471
#	77327
#	95342
#	115585
#	145531
#
# Disc length: 2475 seconds
#
# Revision: 0
# Processed by: cddbd v1.5.2PL0 Copyright (c) Steve Scherf et al.
# Submitted via: CDex 1.70beta2
#
DISCID=4109a907
DTITLE=白いしましまうさぎ - 白くてしましまでうさぎっぽいの
DYEAR=2009
DGENRE=東方アレンジ
TTITLE0=幻奏 ～ Duet of the truth and lie.
TTITLE1=暗がりに集え
TTITLE2=里を護る者
TTITLE3=永遠亭的三重奏 ～ 師匠はつらいよ
TTITLE4=遭逢
TTITLE5=遊楽 ～ Japanese Play Style
TTITLE6=天地悠久共奏乃音 ～ あめつちのゆうきゅうなるきょうそうのおと
EXTD=YEAR: 2009
EXTT0=
EXTT1=
EXTT2=
EXTT3=
EXTT4=
EXTT5=
EXTT6=
PLAYORDER=
